<svg xmlns="http://www.w3.org/2000/svg" version="1.1" x="0" y="0" viewBox="0 0 36.9 36.9" enable-background="new 0 0 36.94 36.94" xml:space="preserve"><path fill="#2F5987" d="M18.5 0.1c2.5 0 4.9 0.5 7.1 1.5 2.2 1 4.2 2.3 5.8 3.9 1.7 1.7 3 3.6 3.9 5.8 1 2.2 1.4 4.6 1.4 7.1 0 1.7-0.2 3.3-0.7 4.9s-1.1 3-1.9 4.4c-0.8 1.4-1.7 2.6-2.9 3.7 -1.1 1.1-2.3 2.1-3.7 2.9 -1.4 0.8-2.8 1.4-4.4 1.9 -1.6 0.4-3.2 0.7-4.9 0.7s-3.3-0.2-4.9-0.7 -3-1.1-4.4-1.9c-1.4-0.8-2.6-1.7-3.7-2.9s-2.1-2.3-2.9-3.7c-0.8-1.4-1.4-2.8-1.9-4.4S0.1 20.2 0.1 18.5c0-1.7 0.2-3.3 0.7-4.9 0.4-1.6 1.1-3 1.9-4.4 0.8-1.4 1.8-2.6 2.9-3.7C6.6 4.4 7.8 3.4 9.2 2.6c1.4-0.8 2.8-1.4 4.4-1.9S16.8 0.1 18.5 0.1M22.2 10.8c0 0.5 0.3 0.7 0.8 0.7 0.5 0 0.8-0.2 0.8-0.7V9.1c0-0.5-0.3-0.7-0.8-0.7 -0.5 0-0.8 0.2-0.8 0.7V10.8zM13.2 10.8c0 0.5 0.3 0.7 0.8 0.7s0.8-0.2 0.8-0.7V9.1c0-0.5-0.3-0.7-0.8-0.7s-0.8 0.2-0.8 0.7V10.8zM27 15.6c0-0.2-0.1-0.3-0.3-0.3H10.3c-0.2 0-0.3 0.1-0.3 0.3v11.7c0 0.2 0.1 0.3 0.3 0.3h16.3c0.2 0 0.3-0.1 0.3-0.3V15.6zM27 10.3c0-0.2-0.1-0.3-0.3-0.3h-1.7v0.8c0 0.4-0.1 0.8-0.4 1.2 -0.3 0.4-0.8 0.6-1.4 0.6 -0.7 0-1.2-0.2-1.5-0.6 -0.3-0.4-0.4-0.8-0.4-1.2V10h-5.3v0.8c0 0.4-0.1 0.8-0.4 1.2 -0.3 0.4-0.8 0.6-1.5 0.6s-1.2-0.2-1.5-0.6c-0.3-0.4-0.4-0.8-0.4-1.2V10h-1.8c-0.2 0-0.3 0.1-0.3 0.3v3.4c0 0.2 0.1 0.3 0.3 0.3h16.3c0.2 0 0.3-0.1 0.3-0.3V10.3zM17.3 21.3c0.3 0.1 0.6 0.3 0.9 0.6 0.3 0.2 0.4 0.6 0.4 1.1 0 0.7-0.3 1.2-0.8 1.6 -0.5 0.4-1.2 0.6-2.1 0.6 -0.6 0-1.1-0.1-1.7-0.3 -0.1-0.1-0.1-0.1-0.1-0.2l0.1-1.1c0 0 0-0.1 0.1-0.1h0.1c0.5 0.2 1.1 0.3 1.5 0.3 0.3 0 0.5-0.1 0.7-0.2 0.2-0.1 0.3-0.3 0.3-0.5 0-0.2-0.1-0.4-0.3-0.6 -0.2-0.1-0.6-0.2-1.2-0.3 -0.1 0-0.1-0.1-0.1-0.2v-1.1c0-0.1 0.1-0.1 0.1-0.2 0.6 0 0.9-0.1 1-0.3 0.1-0.1 0.2-0.3 0.2-0.4 0-0.1 0-0.2-0.1-0.3 -0.1-0.1-0.3-0.1-0.7-0.1 -0.4 0-0.8 0.1-1.2 0.3 -0.1 0-0.1 0-0.2 0 0 0-0.1 0-0.1-0.1l-0.1-1.1c0 0 0-0.1 0.1-0.2 0.6-0.2 1.2-0.4 1.9-0.4 0.7 0 1.2 0.1 1.7 0.4 0.4 0.3 0.6 0.7 0.6 1.1C18.4 20.4 18 20.9 17.3 21.3M22.6 18.2c0.1 0 0.2 0.1 0.2 0.2v6.5c0 0.1-0.1 0.1-0.2 0.1h-1.4c-0.1 0-0.1 0-0.1-0.1v-4.6l-0.9 0.3c0 0-0.1 0-0.1 0 0 0 0 0-0.1 0 0 0-0.1-0.1-0.1-0.1l-0.2-1.1c0-0.1 0-0.1 0.1-0.2l2-1c0 0 0 0 0.1 0H22.6z"/></svg>