<svg xmlns="http://www.w3.org/2000/svg" version="1.1" x="0" y="0" viewBox="0 0 36.9 36.9" enable-background="new 0 0 36.94 36.94" xml:space="preserve"><path fill="#2F5987" d="M18.5 0.1C8.3 0.1 0.1 8.3 0.1 18.5c0 10.1 8.2 18.4 18.4 18.4 0.6 0 1.1-0.5 1.1-1.1 0-0.6-0.5-1.1-1.1-1.1 -8.9 0-16.1-7.2-16.1-16.1S9.6 2.4 18.5 2.4c8.9 0 16.1 7.2 16.1 16.1 0 3.7-2 7.4-4.8 8.9 -1 0.6-2.1 0.8-3.3 0.9 0.7-0.4 1.3-1 1.8-1.7 0.1-0.1 0.2-0.3 0.3-0.4 0.4-0.9 0.4-1.9 0.6-2.8 0.3-1.2-5.2-3.5-5.7-2 -0.2 0.6-0.4 2.3-0.8 2.8 -0.3 0.4-1.1 0.2-1.5-0.2 -1.3-1.1-2.7-2.6-3.9-3.9 0 0-0.1-0.1-0.1-0.1 0 0-0.1-0.1-0.1-0.1v0c-1.2-1.2-2.8-2.6-3.9-3.9 -0.4-0.5-0.6-1.2-0.2-1.5 0.5-0.3 2.2-0.6 2.8-0.8 1.5-0.5-0.8-6-2-5.7 -0.9 0.2-1.9 0.3-2.8 0.6 -0.2 0.1-0.3 0.2-0.4 0.3 -3.1 2-3.6 6.8-0.5 10.4 1.2 1.4 2.4 2.7 3.6 4l0 0c0 0 0.1 0.1 0.1 0.1 0 0 0.1 0.1 0.1 0.1l0 0c1.3 1.3 2.8 3.1 5.4 4.8 5.3 3.5 9.3 2.5 11.7 1.2 4.1-2.3 6-7.1 6-10.9C36.8 8.3 28.6 0.1 18.5 0.1"/></svg>