<svg xmlns="http://www.w3.org/2000/svg" version="1.1" x="0" y="0" viewBox="0 0 18 18" enable-background="new 0 0 18 18" xml:space="preserve"><path fill="#FEBC11" d="M11.5 12.5c-0.4 0.5-1.1 0.8-1.9 0.9v1.3H8.5v-1.3c-1.4-0.1-2.3-1-2.6-2.4l1.6-0.4c0.2 0.9 0.7 1.4 1.5 1.4 0.4 0 0.7-0.1 0.9-0.3 0.2-0.2 0.3-0.4 0.3-0.7 0-0.3-0.1-0.5-0.3-0.7C9.7 10.1 9.3 9.9 8.7 9.6 8.1 9.4 7.6 9.2 7.3 9 7 8.8 6.7 8.6 6.5 8.2c-0.2-0.4-0.3-0.8-0.3-1.3 0-0.6 0.2-1.2 0.6-1.7C7.1 4.8 7.7 4.5 8.5 4.4V3.4h1.1v1c1.2 0.1 2 0.8 2.3 2l-1.5 0.6c-0.3-0.8-0.7-1.2-1.3-1.2 -0.3 0-0.5 0.1-0.7 0.3 -0.2 0.2-0.3 0.4-0.3 0.7 0 0.3 0.1 0.5 0.3 0.6 0.2 0.1 0.6 0.3 1.1 0.5 0.6 0.2 1.1 0.4 1.5 0.7 0.4 0.2 0.6 0.5 0.9 0.9 0.2 0.4 0.3 0.8 0.3 1.3C12.1 11.4 11.9 12 11.5 12.5M9 0c-5 0-9 4-9 9s4 9 9 9c5 0 9-4 9-9S14 0 9 0"/></svg>