<svg xmlns="http://www.w3.org/2000/svg" version="1.1" x="0" y="0" viewBox="0 0 96 96" enable-background="new 0 0 96 96" xml:space="preserve"><path d="M71.2 27.4c0.2-0.8-0.3-1.6-1-1.9 -3.9-1.8-9.2-2.9-14.5-2.9 -17.7 0-32.2 14.4-32.2 32.2 0 11.8 7.9 17.9 15.6 17.9 7 0 12.7-2.8 17.2-8.6 0.5 2.1 1.4 3.9 2.8 5.3 2 2.1 4.9 3.3 8.1 3.3 12.2 0 24.6-11.1 24.6-32.3 0-22.9-16.1-38.8-39.1-38.8 -27.7 0-48.6 21.9-48.6 51 0 24.2 17.1 41.8 40.6 41.8 9.4 0 16.7-1.6 23.6-5.3 0.8-0.4 1.2-1.4 0.8-2.2l-2-5.5c-0.2-0.5-0.6-0.9-1.1-1.1 -0.5-0.2-1-0.1-1.5 0.1 -5 2.8-11.4 4.3-18.5 4.3 -18.6 0-31.1-13.2-31.1-32.8 0-23.6 15.4-40.8 36.7-40.8 18 0 29.2 11.5 29.2 30.1 0 13.4-6.2 21.7-12 21.7 -1.1 0-1.6-0.5-1.9-0.8 -0.8-0.9-1.8-3.7-0.3-11.4L71.2 27.4zM54.2 33c1.5 0 3 0.1 4.3 0.4L56.1 46.3c-1.3 7.4-7.7 16-13.9 16 -6 0-6.7-5.6-6.7-8C35.6 42.7 44.1 33 54.2 33z"/></svg>