<svg xmlns="http://www.w3.org/2000/svg" version="1.1" x="0" y="0" viewBox="0 0 18 18" enable-background="new 0 0 18 18" xml:space="preserve"><path fill="#FEBC11" d="M9 0c1.2 0 2.4 0.2 3.5 0.7s2.1 1.1 2.9 1.9c0.8 0.8 1.5 1.8 1.9 2.9C17.8 6.6 18 7.8 18 9c0 0.8-0.1 1.6-0.3 2.4 -0.2 0.8-0.5 1.5-0.9 2.2 -0.4 0.7-0.9 1.3-1.4 1.8s-1.2 1-1.8 1.4c-0.7 0.4-1.4 0.7-2.2 0.9C10.6 17.9 9.8 18 9 18s-1.6-0.1-2.4-0.3c-0.8-0.2-1.5-0.5-2.1-0.9 -0.7-0.4-1.3-0.9-1.8-1.4s-1-1.2-1.4-1.8c-0.4-0.7-0.7-1.4-0.9-2.2C0.1 10.6 0 9.8 0 9c0-0.8 0.1-1.6 0.3-2.4C0.5 5.8 0.8 5.1 1.2 4.5c0.4-0.7 0.9-1.3 1.4-1.8 0.5-0.5 1.2-1 1.8-1.4 0.7-0.4 1.4-0.7 2.2-0.9C7.4 0.1 8.2 0 9 0M4.8 10.6c0-0.2 0.1-0.4 0.2-0.6C5.1 9.8 5.2 9.7 5.4 9.6L6.8 9C6.9 8.9 7 8.8 7 8.7 6.9 8.5 6.8 8.3 6.7 8 6.6 7.7 6.6 7.4 6.6 7.1c0-0.2 0-0.4 0.1-0.6 0-0.2 0.1-0.4 0.2-0.5 -0.2-0.2-0.5-0.2-0.7-0.2 -0.4 0-0.8 0.2-1 0.5S4.6 7 4.6 7.5c0 0.3 0.1 0.6 0.2 0.9C5 8.6 5.1 8.9 5.4 9L3.4 9.9c-0.1 0.1-0.2 0.2-0.2 0.4v1.6c0 0.1 0 0.2 0.1 0.3 0.1 0.1 0.1 0.1 0.2 0.1h1.3V10.6zM12.5 10.6c0-0.2-0.1-0.4-0.3-0.4l-1.7-0.8 -0.7-0.3c0.2-0.1 0.3-0.2 0.4-0.4s0.2-0.3 0.3-0.5c0.1-0.1 0.1-0.3 0.2-0.5S10.8 7.3 10.8 7.1c0-0.1 0-0.2 0-0.3 0-0.1 0-0.2-0.1-0.3 -0.1-0.5-0.3-0.8-0.6-1.1C9.8 5.1 9.4 5 9 5c-0.4 0-0.8 0.1-1.1 0.4 -0.3 0.3-0.5 0.6-0.6 1.1 -0.1 0.2-0.1 0.4-0.1 0.6 0 0.4 0.1 0.7 0.2 1C7.6 8.5 7.8 8.8 8.1 9L7.5 9.3l-1.8 0.8c-0.2 0.1-0.3 0.2-0.3 0.5v1.7 0.3c0 0.1 0 0.2 0.1 0.3 0.1 0.1 0.2 0.1 0.3 0.1h6.3c0.1 0 0.2 0 0.3-0.1 0.1-0.1 0.1-0.2 0.1-0.3V12.2 10.6zM14.8 10.3c0-0.2-0.1-0.3-0.2-0.4l-2-0.9c0.2-0.1 0.4-0.3 0.5-0.6 0.1-0.3 0.2-0.6 0.2-0.9 0-0.5-0.1-0.9-0.4-1.2 -0.3-0.3-0.6-0.5-1-0.5 -0.1 0-0.3 0-0.4 0.1s-0.2 0.1-0.4 0.2c0.1 0.4 0.2 0.7 0.2 1.1 0 0.6-0.2 1.1-0.5 1.6 0.1 0.1 0.1 0.1 0.2 0.2 0.1 0 0.1 0.1 0.2 0.1l1.3 0.6c0.2 0.1 0.3 0.2 0.4 0.4 0.1 0.2 0.2 0.4 0.2 0.6v1.7h1.4c0.1 0 0.2 0 0.2-0.1 0.1-0.1 0.1-0.2 0.1-0.3V10.3z"/></svg>