<svg xmlns="http://www.w3.org/2000/svg" version="1.1" x="0" y="0" viewBox="0 0 27.3 36.7" enable-background="new 0 0 27.317 36.72" xml:space="preserve"><path fill="#2F5987" d="M15 16.6l3.7-3.7c0.3-0.3 0.3-0.8 0-1.2 -0.3-0.3-0.8-0.3-1.2 0l-3.1 3.1 -1.2-1.2c-0.3-0.3-0.8-0.3-1.2 0 -0.3 0.3-0.3 0.8 0 1.2l1.8 1.8c0.2 0.2 0.4 0.2 0.6 0.2C14.7 16.8 14.9 16.7 15 16.6M15.3 17.1v0.6h-5v-5h5v0.6l1.1-1.1v0c0-0.3-0.2-0.6-0.6-0.6H9.8c-0.3 0-0.6 0.3-0.6 0.6v6.1c0 0.3 0.2 0.6 0.6 0.6h6.1c0.3 0 0.6-0.2 0.6-0.6v-2.2l-1 1C15.4 17 15.4 17 15.3 17.1M10.4 22.7h4.9v4.9h-4.9V22.7zM9.1 22.1v6.1c0 0.4 0.3 0.6 0.6 0.6h6.1c0.4 0 0.6-0.3 0.6-0.6v-6.1c0-0.3-0.3-0.6-0.6-0.6H9.7C9.4 21.4 9.1 21.7 9.1 22.1M5.6 7.6h16.1V5.9H5.6V7.6zM24.9 29.1h-5.6v5.2l-0.1 0.1H2.4V2.4h22.5V29.1zM27.3 29.8V1.2c0-0.7-0.5-1.2-1.2-1.2H1.2c-0.7 0-1.2 0.5-1.2 1.2v34.3c0 0.7 0.5 1.2 1.2 1.2h18.5c0.3 0 0.6-0.1 0.8-0.3l6.4-5.8C27.2 30.4 27.3 30.1 27.3 29.8"/></svg>