<svg xmlns="http://www.w3.org/2000/svg" version="1.1" x="0" y="0" viewBox="0 0 180 31" enable-background="new 0 0 180 30.961" xml:space="preserve"><path fill="#000000" d="M15.1 25.5c1.9 0.8 4.5 0 5.6-1.1 -0.5-0.8-1.3 0.1-2.2 0.4 -1.1 0.4-2.1 0.6-3.5 0.4 -0.2 0-0.1 0.1-0.1 0.2C15 25.4 15 25.4 15.1 25.5M6.1 24c0.4 0.8 1.5 1 2.6 0.9 0.6 0.4 1.5 0.5 2.4 0.5 0.1-0.1 0.2-0.3 0.3-0.4 -0.6-0.3-1.3 0.1-2-0.2 0.6-0.3 1.2-0.6 1.6-1.1 -0.1-0.3-0.4-0.4-0.7-0.5 -0.5 1-1.5 1.4-3 1.4C7 24.3 6.8 23.9 6.1 24M12.5 2.7c0-0.4-0.5-0.4-0.7-0.7 0-0.2 0.2-0.5 0.1-0.7 -0.2-0.1-0.4 0.2-0.7 0.2 -0.3-0.2-0.4-0.5-0.8-0.5 -0.2 0.2 0 0.6 0.1 0.8 -0.2 0.2-0.8 0.3-0.7 0.6 0.1 0.3 0.7 0.1 0.8 0.4 0 0.3-0.1 0.9 0.2 0.9 0.3-0.2 0.3-0.7 0.6-0.9C11.8 2.7 12.3 2.9 12.5 2.7M12.7 5.1c-0.4 0.2-0.4 0.9-0.8 1.2 0.1-0.5 0.3-0.9 0.4-1.4C12.5 4.9 12.6 5 12.7 5.1M20.1 11.4c0.1-0.7-0.9-1.1-1.5-1.2 -1.9-0.2-4.4 0-5.1-1.1 0.6 0.2 1.4 0.5 2.1 0.5 0.9 0 2.2-0.6 2.2-1.4 -1.1-0.6-2.9-0.6-3.5-1.7 0.6 0 1-0.4 1.1-0.9 -0.8-0.5-2-1-2.7-1.5 -0.3-0.2-0.4-0.6-0.7-0.6 -0.8-0.2-0.3 0.6-0.2 1 0.2 1-0.5 2-0.9 2.8 0.3 0.2 0.4-0.1 0.7-0.1 -1.1 1.4-2.6 2.5-4.3 3.4 -0.1 0.3-0.4 0.3-0.3 0.7 1.1 0.5 2 0.2 2.8-0.3 1-0.6 2.1-1.6 2.5-2.5 -0.2 0-0.4-0.1-0.7-0.1 -0.4 0.5-0.9 1-1.4 1.5 -0.7 0.6-1.5 1.5-2.4 1.2 0.5-0.7 1.4-1 2-1.5 0.9-0.7 1.8-1.5 2.5-2.3C12.4 7.3 12.4 7.3 12.4 7.3c-0.1 0.1-0.1 0.5 0 0.6 0.3 0 0.3 0 0.6 0 0.1-0.1 0.1-0.3 0.1-0.6 -0.1-0.2-0.5-0.2-0.6-0.2 0 0 0-0.1 0-0.1 0-0.1 0.1-0.2 0.1-0.3 0-0.2-0.3 0.1-0.2-0.2 0.2-0.3 0.4-0.7 0.6-1.1 0.1 0.1 0.3 0.1 0.4 0.2 -0.1 0.3-0.4 0.3-0.5 0.6 0.2 0.1 0.5 0.3 0.7 0.4 -0.1 0.2 0 0.2 0.1 0.4 0.8 0.8 2.2 0.9 3.3 1.4 -0.5 0.5-1.1 0.9-1.8 0.9 -1 0-1.8-1.1-2.7-0.9 0 0.4 0.4 0.3 0.4 0.6 -0.2 0.1-0.4 0.3-0.4 0.6h-0.4c-1.1 1.9-3.3 3.2-5.3 4.5 -0.5 0.3-1.5 0.9-1.3 1.5 0.2 0.6 1.3 0.3 1.7 0.4 -1.1 0.9-2.5 1.5-3 3 1.1 1 2.7 0.3 3.8-0.2 2.7-1.2 4.9-3.2 6.6-5.1 -0.2-0.1-0.5-0.1-0.7-0.2 -1.9 2.2-4.5 4.3-7.5 5.4 -0.4 0.1-1 0.5-1.4 0.1 0.7-1.7 2.7-2.1 3.8-3.5 -0.1 0-0.3 0.1-0.2-0.1 1.8-0.8 3.1-2.1 4.3-3.5 -0.1-0.2-0.5-0.1-0.6-0.2 -1.3 1.3-2.5 2.4-4.1 3.3 -0.6 0.3-1.2 0.8-1.9 0.7 0.8-1.3 2.5-1.8 3.6-2.7 1.2-0.9 2.1-1.9 3-3 0.6 0.4 1.3 0.8 2.2 0.9 0 0 0.1 0 0.1 0 -0.2 0.2-0.1 0.7 0.1 0.8 0.7 0.1 0.7-0.2 0.8-0.7 0 0 0 0 0 0 0 0 0.1 0 0.1 0 1.3 0.1 2.9-0.1 3.3 1 -1.8 1.6-4.7 0.1-5.9-1 -0.3 0.1-0.4 0.3-0.6 0.4 0.9 0.8 2.1 1.8 3.8 1.9C17.9 13 20.1 12.2 20.1 11.4M5.4 20.8L5.4 20.8H5.4C5.4 20.8 5.4 20.8 5.4 20.8M5.4 20.8c0.2 0.1 0.4 0 0.6 0 1.6-0.9 3.7-1.5 5.2-2.5 0.5-0.3 1.1-0.8 1.3-1.3 -1-0.1-1.6 0.9-2.5 1.3 -1.5 0.7-3.1 1.3-4.6 2.1C5.3 20.6 5.3 20.8 5.4 20.8M9.5 20.4c0.7 0.1 1.1-0.5 0.9-1C9.6 18.9 8.9 19.8 9.5 20.4M11.5 14.7c0.7 0 0.9-1.5-0.1-1.2C10.7 13.6 10.8 14.7 11.5 14.7M15.4 14.3c-0.3-0.1-0.4 0.3-0.3 0.4 0.1 0 0.1 0.1 0.3 0.1C15.5 14.7 15.5 14.4 15.4 14.3M21.8 14.6c-1.3-1.2-4.7-0.2-6.1-1.5 -0.1 0-0.1 0-0.1 0.1 0 0-0.1 0.1-0.1 0.1 1.2 1 3.4 1.1 5.3 1.2 -1.7 1.6-4.7 1.9-7.5 1.2 0.3 0.5 0.9 0.7 1.5 0.7C17.5 16.8 20.6 16.1 21.8 14.6M26.6 28.9c-0.4-0.5-1-0.7-1.5-0.9 -0.6-0.3-1.1-0.5-1.4-1 -0.4-0.7-0.2-1.3-0.1-2 0-0.4-0.1-0.7-0.2-1 -0.1-1 0-2.1-0.1-3.2 0.9-0.6 0.4-2.3-1-1.9 0 0 0 0 0 0 -0.1-1.2-0.9-1.9-2.3-2 -1.8 0-4.2 0.3-5.9-0.1 0.3 0.6 1.2 0.5 2.2 0.6 1.5 0.2 3.3 0.1 4.8 0.1 0.2 0.3 0.4 0.6 0.5 1.1 -1.6 0.8-4 0.3-5.5-0.3 -0.7-0.3-1.1-0.9-1.7-0.9 1.5 1.5 5.4 2.8 7.9 1.7 0 0 0 0 0 0 -0.5 0.5-0.3 1.4 0.1 1.9 -0.8 1.1-1.9 1.8-3.6 1.9 -0.2-0.1-0.1-0.4-0.4-0.4 -0.4 0.2-0.3 0.5-0.7 0.6 -0.9 0.4-2.2-0.2-2.8-0.6 -0.4-0.3-1-1-0.3-1.2 0.2 0.1 0 0.5 0.1 0.6 0.2 0 0.2-0.3 0.4-0.3 -0.4-0.5 0.1-1.5-0.4-2 -0.2-0.2-0.7-0.2-0.9-0.2 0 0-0.1 0-0.1 0 0 0 0 0 0 0 0.1-0.2 0.4-0.8 0.1-1 -0.2 0.4-0.5 0.8-0.7 1.2 -0.2 0.2-0.2 0.7-0.2 1 -0.2 0.3-0.7 0.3-0.6 0.9 0.6 0.3 0.7-0.3 0.9-0.3 0.1 0.6-0.7 0.7-1.2 0.9 0 0 0 0 0 0 0-0.2 0.2-0.5-0.1-0.5 -0.4-0.1-0.5 0.5-0.9 0.6 0 0 0 0 0 0 -0.4 0.1-0.8-0.3-1.2-0.4 0 0 0 0 0 0 1.6-1.4 3.1-3.1 4-5.2 -0.2 0-0.4-0.2-0.7-0.1 -1 2-2.4 3.6-4.1 5 0 0 0 0 0 0 -0.3-0.1-0.2-0.5-0.6-0.6 -0.7 0.4-1.9 0.1-2.7-0.1 0 0 0 0 0 0 -0.2 0-0.4 0-0.6 0 -1-0.2-1.7-0.6-1.9-1.7 0.2-0.4 0.4-0.4 0.4-0.7 0.3-1.7-2.3-1.7-1.9 0 0.1 0.3 0.4 0.3 0.5 0.7 0.1 0.4-0.2 1.7-0.3 2.5 -0.1 0.5-0.4 0.8-0.4 1.2 -0.1 0.5 0.2 1 0.2 1.4 0 0.8-0.5 1.7-0.9 2.4C0.7 27.5 0.1 28.2 0 28.8c0.4 0 0.9-0.4 1.2-0.7 1-0.9 1.7-2.3 2.2-3.6 1 0.4 1.4 1.5 1.3 2.9 0 0.6-0.4 1.4 0.1 1.8 0.5-0.6 0.5-1.6 0.6-2.4 0-0.4 0.1-1 0.1-1.4 -0.1-1-1.3-1.3-1.5-2 -0.2-0.6 0.2-1.4 0.2-1.9 0.9 0.7 3.1 0.4 4.1-0.1 0.1 0.2 0.4 0.1 0.6 0.2 0 0 0 0 0 0 -0.1 0.4-0.5 0.5-0.7 0.6 -0.7 0.4-1.4 0.9-2.4 0.9 -0.4-0.2-0.5-0.8-0.5-1.2 -0.3-0.1-0.6 0.1-0.7 0.2 0.3 2.5 3.9 0.8 4.9 0 0 0 0 0 0 0 0.7 0.7 1.9 1.1 3.4 0.9 -0.6 0.8-1 2-1.5 2.9 -0.2 0.3-0.6 0.5-0.6 0.9 0.3 0.1 0.6-0.2 0.8-0.1 -0.2 0.6-0.4 1.4-0.7 2.1 -0.2 0.7-0.8 1.4-0.4 2 1.1-1.1 1.8-2.6 2.5-4.1h1c0.8 1.6-0.7 2.9-0.9 4.1 0.6 0.2 0.9-0.6 1.3-1.2 0.6-0.9 1.2-2.2 0.6-3.3 0.3-0.2 0.5-0.6 0.4-0.9 0 0 0 0 0 0 -0.1 0-0.1-0.1-0.1-0.1 0 0 0 0.1-0.1 0.1 -0.3-0.3-0.4-1.3-0.1-1.7 1 0.8 2.6 0 3.3-0.6 0.9 0.1 2.5 0.4 3.5-0.1 -0.5 0.7 0.1 1.7 0 2.5 0 0.5-0.4 1-0.6 1.6 -0.1 0.4-0.1 0.8-0.1 1.2 -0.1 1 0.1 2 0.8 2.5 0.5-0.6 0.2-1.8 0.2-2.8 0.1-0.6 0.2-1.2 0.4-1.5C22.7 28.3 24.5 29.1 26.6 28.9M19.5 21.5c0.5 0.1 1.2 0.1 1.5 0.1 1.2-0.3 0.7-1.8-0.4-1.8 0 0.4 0.4 0.4 0.4 0.9 -0.3 0.6-1.3 0.5-1.8 0.4 -1-0.2-2.5-0.7-3.3-1.4 -0.7-0.6-0.9-1.7-1.8-1.5C15.1 19.7 17.4 21 19.5 21.5M15.2 20.5c0 0-0.1 0.1-0.1 0.1 0.7 1.1 2.1 1.6 3.8 1.8 0.2 0.1 0.3 0.2 0.4 0.2 0.1-0.1 0.3-0.1 0.5-0.1 -1-0.9-2.8-0.6-3.8-1.5C15.9 20.7 15.6 20.3 15.2 20.5M18.2 18.3c0.2 0.3 0.7 0.2 0.9-0.1C19.3 17.4 17.9 17.4 18.2 18.3M12 20.7c0.2 0 0.3-0.1 0.4-0.1 0.1-0.6-0.7-0.6-0.6 0C11.9 20.6 12 20.7 12 20.7M30.1 8.7h4.6V6.1h-7.8v18.1h3.2V15.7h3.3v-2.6h-3.3V8.7zM36.5 24.2h8.2v-2.6H39.8V15.7h3.3v-2.6H39.8V8.7h4.6V6.1h-7.8V24.2zM50.5 12.1c-0.7-0.9-0.9-1.4-0.9-2.2 0-0.8 0.6-1.4 1.5-1.4 0.8 0 1.4 0.7 1.4 2v0.7h3.2V9.9c0-2.4-1.9-4-4.7-4 -2.8 0-4.7 1.6-4.7 4 0 2.5 0.7 3.1 2.4 5.1l2.7 2.8c0.7 0.8 1.1 1.5 1.1 2.5 0 1.1-0.6 1.7-1.4 1.7 -0.8 0-1.4-0.5-1.4-1.7v-1.7h-3.3v1.9c0 2.6 2.1 4.1 4.7 4.1 2.6 0 4.8-1.4 4.8-4.1 0-2.1-0.8-3.1-2.1-4.6L50.5 12.1zM63.6 8.7h3.3V6.1h-9.9v2.6h3.3v15.6h3.2V8.7zM68.9 24.2h3.2V6.1h-3.2V24.2zM81.4 24.2l4.2-18.1h-3.4L79.8 19.5h-0.1L77.5 6.1h-3.5l4 18.1H81.4zM91.1 17.4h-2.1l1-6.5h0.1L91.1 17.4zM92.3 24.2h3.2L91.8 6.1h-3.2l-3.7 18.1h3.1l0.6-4.2h3.1L92.3 24.2zM97.4 24.2h7.5v-2.6h-4.2V6.1h-3.2V24.2zM123.2 2.1c0 2.4-2.8 9.7-5.2 11.9 2-8.3 3.5-12.8 4.7-12.8C123.1 1.1 123.2 1.5 123.2 2.1M116.7 20.2c0.5 1.1 0.7 2.2 0.7 3.2 0 1.7-0.6 3-1.2 3 -0.3 0-0.4-0.3-0.4-0.9C115.8 24.9 115.9 24.2 116.7 20.2M112.2 9.6c0 1.7-0.4 4-1 5.8 -1.2-0.7-1.7-2.3-1.7-3.8 0-2.3 0.9-4.4 1.8-4.4C112 7.3 112.2 8.3 112.2 9.6M110.9 16.3c-0.4 1.2-0.9 2-1.4 2 -0.1 0-0.2 0-0.2 0 -0.9 0-1.2-1-1.2-2.4 0-0.8 0.1-1.6 0.3-2.4C108.7 14.8 109.5 15.9 110.9 16.3M124.3 3.1c0-1.4-0.6-2-1-2.2 -0.1-0.4-0.6-0.8-1.2-0.8 -3.5 0-4.9 6.4-6.5 13.6 0 0.2-0.1 0.4-0.1 0.5 -0.6 1.1-1.6 1.6-2.5 1.6 0.9-1.7 1.4-3.8 1.4-5.6 0-2.2-0.9-4-2.9-4 -1.6 0-2.7 1.2-3.2 2.9 -0.6-0.1-1.1 0.5-1.3 1 -0.7 1.4-1.2 3.3-1.2 5.2 0 2.4 0.9 4.3 2.9 4.3 1.5 0 2.8-1.3 3.9-3.1 1.1 0 2-0.5 2.7-1 -0.6 3-1.1 5.7-1.1 7.8 0 2.3 0.6 3.8 2.1 3.8 1.9 0 2.5-1.6 2.5-3.3 0-1.9-0.7-3.9-1.7-4.3 3.2-0.6 5.6-1.9 6.9-5 0.1-0.1 0.1-0.3 0.1-0.4 0-0.2-0.1-0.3-0.2-0.3 -0.1 0-0.3 0.1-0.4 0.4 -1.3 2.8-3.6 3.6-6.5 4 0.2-1.3 0.5-2.4 0.7-3.4C120.3 14.7 124.3 9.3 124.3 3.1M133.2 8.7h3.3V6.1h-9.9v2.6h3.3v15.6h3.2V8.7zM145.3 11.3c0 2.6-0.6 2.9-2.7 2.9h-1V8.7h2.1C145 8.7 145.3 9.8 145.3 11.3M149.1 24.2l-3.4-7.7c1.6-0.8 2.7-2.5 2.7-5.2 0-2.9-1.5-5.2-4.6-5.2h-5.4v18.1h3.2v-7.3h1l3.1 7.3H149.1zM150.7 24.2h8.2v-2.6h-4.9V15.7h3.3v-2.6h-3.3V8.7h4.6V6.1h-7.8V24.2zM160.7 24.2h8.2v-2.6h-4.9V15.7h3.3v-2.6h-3.3V8.7h4.6V6.1h-7.8V24.2zM176.7 11.2h3.2V9.9c0-2.4-1.9-4-4.7-4 -2.8 0-4.7 1.6-4.7 4 0 2.5 0.7 3.1 2.4 5.1l2.7 2.8c0.7 0.8 1.1 1.5 1.1 2.5 0 1.1-0.6 1.7-1.4 1.7 -0.8 0-1.4-0.5-1.4-1.7v-1.7h-3.3v1.9c0 2.6 2.1 4.1 4.7 4.1 2.6 0 4.8-1.4 4.8-4.1 0-2.1-0.8-3.1-2.1-4.6l-3.2-3.7c-0.7-0.9-0.9-1.4-0.9-2.2 0-0.8 0.6-1.4 1.4-1.4 0.8 0 1.4 0.7 1.4 2V11.2z"/></svg>