<svg xmlns="http://www.w3.org/2000/svg" version="1.1" x="0" y="0" viewBox="0 0 36.9 36.9" enable-background="new 0 0 36.94 36.94" xml:space="preserve"><path fill="#2F5987" d="M29.5 13.4l-4.7 4.7 0 0c-1.6 1.5-3.8 0.4-3.8 0.4l-0.6 0.6 7.1 7.1 -2.1 2.1 -7.1-7.1 -0.3 0.3 0 0 -7 7c0 0-1.5 0.2-1.5-1.5l7.3-7.3 -0.8-0.8 -1.9 1.9c-5.7-3.6-6.5-10.2-6.5-10.2L9.6 8.5l9.2 9.2 0.6-0.6 0 0c-0.6-1.4-1.2-2.3 0.3-3.9l0 0 4.7-4.7 0.8 0.8 -4.2 5 0.9 0.9 4.8-4.6 0.7 0.7 -4.6 4.8 1.1 1.1 4.8-4.3L29.5 13.4zM34.1 18.5c0-8.6-7-15.6-15.6-15.6 -8.6 0-15.6 7-15.6 15.6 0 8.6 7 15.6 15.6 15.6C27.1 34.1 34.1 27.1 34.1 18.5M35.2 18.5c0 9.2-7.5 16.8-16.8 16.8 -9.2 0-16.8-7.5-16.8-16.8S9.2 1.7 18.5 1.7C27.7 1.7 35.2 9.2 35.2 18.5M36.8 18.5c0-10.1-8.2-18.4-18.4-18.4C8.4 0.1 0.1 8.3 0.1 18.5s8.2 18.4 18.4 18.4C28.6 36.8 36.8 28.6 36.8 18.5"/></svg>