<svg xmlns="http://www.w3.org/2000/svg" version="1.1" x="0" y="0" viewBox="0 0 36.9 36.9" enable-background="new 0 0 36.94 36.94" xml:space="preserve"><path fill="#2F5987" d="M9.3 31.7c0 0.3 0.3 0.6 0.6 0.6h9.2c0.3 0 0.6-0.3 0.6-0.6 0-0.3-0.3-0.6-0.6-0.6H9.9C9.5 31.1 9.3 31.4 9.3 31.7M9.3 28.2c0 0.3 0.3 0.6 0.6 0.6h9.2c0.3 0 0.6-0.3 0.6-0.6 0-0.3-0.3-0.6-0.6-0.6H9.9C9.5 27.7 9.3 27.9 9.3 28.2M9.3 24.8c0 0.3 0.3 0.6 0.6 0.6h9.2c0.3 0 0.6-0.3 0.6-0.6 0-0.3-0.3-0.6-0.6-0.6H9.9C9.5 24.2 9.3 24.5 9.3 24.8M17.3 12.7h-5.7V7h5.7V12.7zM19.6 13.9V5.9c0-0.6-0.5-1.1-1.1-1.1h-8c-0.6 0-1.1 0.5-1.1 1.1v8c0 0.6 0.5 1.1 1.2 1.1h8C19.1 15 19.6 14.5 19.6 13.9M32.2 7.6c0-0.3-0.3-0.6-0.6-0.6h-9.2c-0.3 0-0.6 0.3-0.6 0.6 0 0.3 0.3 0.6 0.6 0.6h9.2C32 8.2 32.2 7.9 32.2 7.6M32.2 11c0-0.3-0.3-0.6-0.6-0.6h-9.2c-0.3 0-0.6 0.3-0.6 0.6 0 0.3 0.3 0.6 0.6 0.6h9.2C32 11.6 32.2 11.3 32.2 11M32.2 14.5c0-0.3-0.3-0.6-0.6-0.6h-9.2c-0.3 0-0.6 0.3-0.6 0.6s0.3 0.6 0.6 0.6h9.2C32 15 32.2 14.8 32.2 14.5M32.2 17.9c0-0.3-0.3-0.6-0.6-0.6h-21.8c-0.3 0-0.6 0.3-0.6 0.6 0 0.3 0.3 0.6 0.6 0.6h21.8C32 18.5 32.2 18.2 32.2 17.9M32.2 21.3c0-0.3-0.3-0.6-0.6-0.6h-21.8c-0.3 0-0.6 0.3-0.6 0.6 0 0.3 0.3 0.6 0.6 0.6h21.8C32 21.9 32.2 21.7 32.2 21.3M32.2 24.8c0-0.3-0.3-0.6-0.6-0.6h-9.2c-0.3 0-0.6 0.3-0.6 0.6 0 0.3 0.3 0.6 0.6 0.6h9.2C32 25.4 32.2 25.1 32.2 24.8M32.2 28.2c0-0.3-0.3-0.6-0.6-0.6h-9.2c-0.3 0-0.6 0.3-0.6 0.6 0 0.3 0.3 0.6 0.6 0.6h9.2C32 28.8 32.2 28.5 32.2 28.2M32.2 31.7c0-0.3-0.3-0.6-0.6-0.6h-9.2c-0.3 0-0.6 0.3-0.6 0.6 0 0.3 0.3 0.6 0.6 0.6h9.2C32 32.2 32.2 32 32.2 31.7M34.5 32.2c0 1.3-1 2.3-2.3 2.3H4.7c-1.3 0-2.3-1-2.3-2.3V9.3c0-0.6 0.5-1.1 1.1-1.1h1.1v22.9c0 0.6 0.5 1.1 1.1 1.1 0.6 0 1.2-0.5 1.2-1.1V3.6c0-0.6 0.5-1.1 1.1-1.1h25.2c0.6 0 1.1 0.5 1.1 1.1V32.2zM36.8 32.2V3.6c0-1.9-1.5-3.4-3.4-3.4H8.1c-1.9 0-3.4 1.5-3.4 3.4v2.3H3.6c-1.9 0-3.4 1.5-3.4 3.4v22.9c0 2.5 2.1 4.6 4.6 4.6h27.5C34.8 36.8 36.8 34.8 36.8 32.2"/></svg>