<svg xmlns="http://www.w3.org/2000/svg" version="1.1" x="0" y="0" viewBox="0 0 100 100" enable-background="new 0 0 100 100" xml:space="preserve"><path d="M89.5 90.4c-1 4.4-4.6 7.6-8.8 8 -10.2 1.2-20.4 1.2-30.7 1.2 -10.2 0-20.5 0-30.7-1.2 -4.3-0.4-7.8-3.6-8.8-8 -1.4-6.2-1.4-13-1.4-19.3 0-6.4 0.1-13.2 1.4-19.3 1-4.4 4.6-7.6 8.9-8.1 10.1-1.1 20.4-1.1 30.6-1.1 10.2 0 20.5 0 30.7 1.1 4.3 0.5 7.8 3.7 8.8 8.1 1.4 6.2 1.4 12.9 1.4 19.3C90.9 77.4 90.9 84.2 89.5 90.4zM32.4 57.3v-5.2H15.2v5.2H21v31.4h5.5V57.3H32.4zM41.4 0.5l-6.7 22v15h-5.5v-15c-0.5-2.7-1.6-6.6-3.4-11.7C24.6 7.4 23.4 4 22.3 0.5h5.9L32 15.1l3.8-14.5H41.4zM47.4 88.7V61.4h-4.9v20.9c-1.1 1.5-2.2 2.3-3.1 2.3 -0.7 0-1-0.4-1.2-1.2 -0.1-0.2-0.1-0.8-0.1-1.9V61.4h-4.9V83c0 1.9 0.2 3.2 0.4 4 0.4 1.4 1.6 2 3.2 2 1.8 0 3.6-1.1 5.6-3.4v3H47.4zM56.2 28.6c0 2.9-0.5 5.1-1.5 6.5 -1.4 1.9-3.3 2.8-5.9 2.8 -2.5 0-4.4-0.9-5.8-2.8 -1-1.4-1.5-3.6-1.5-6.5v-9.7c0-2.9 0.5-5.1 1.5-6.5 1.4-1.9 3.3-2.8 5.8-2.8 2.5 0 4.5 0.9 5.9 2.8 1 1.4 1.5 3.5 1.5 6.5V28.6zM51.2 17.9c0-2.5-0.7-3.8-2.4-3.8 -1.6 0-2.4 1.3-2.4 3.8v11.6c0 2.5 0.8 3.9 2.4 3.9 1.7 0 2.4-1.3 2.4-3.9V17.9zM66.1 69.7c0-2.5-0.1-4.4-0.5-5.5 -0.6-2-2-3.1-3.9-3.1 -1.8 0-3.5 1-5.1 3v-12h-4.9v36.6h4.9v-2.7c1.7 2 3.4 3 5.1 3 1.9 0 3.3-1 3.9-3 0.4-1.2 0.5-3 0.5-5.5V69.7zM61.2 80.9c0 2.5-0.7 3.7-2.2 3.7 -0.8 0-1.7-0.4-2.5-1.2V66.8c0.8-0.8 1.7-1.2 2.5-1.2 1.4 0 2.2 1.3 2.2 3.7V80.9zM74.8 37.6h-5v-3c-2 2.3-3.9 3.4-5.7 3.4 -1.6 0-2.8-0.7-3.3-2 -0.3-0.8-0.4-2.2-0.4-4.1V10h5v20.3c0 1.2 0 1.8 0.1 1.9 0.1 0.8 0.5 1.2 1.2 1.2 1 0 2-0.8 3.1-2.4V10h5V37.6zM84.8 79.3h-5c0 2-0.1 3.1-0.1 3.4 -0.3 1.3-1 2-2.2 2 -1.7 0-2.5-1.3-2.5-3.8V76h9.9v-5.7c0-2.9-0.5-5-1.5-6.4 -1.4-1.9-3.4-2.8-5.9-2.8 -2.5 0-4.5 0.9-5.9 2.8 -1 1.4-1.5 3.5-1.5 6.4v9.6c0 2.9 0.6 5.1 1.6 6.4 1.4 1.9 3.4 2.8 6 2.8 2.6 0 4.6-1 6-2.9 0.6-0.9 1-1.9 1.2-3 0.1-0.5 0.1-1.6 0.1-3.2V79.3zM79.9 71.9h-5v-2.5c0-2.5 0.8-3.8 2.5-3.8 1.7 0 2.5 1.3 2.5 3.8V71.9z"/></svg>